<svg xmlns="http://www.w3.org/2000/svg" viewBox="0 0 48 48" role="img" aria-label="Workspace">
  <path fill="#0b0f14" d="M8 13a5 5 0 0 1 5-5h9.1c1.3 0 2.6.5 3.5 1.5L29.1 13H36a5 5 0 0 1 5 5v2H8v-7Z"/>
  <path fill="#0b0f14" fill-rule="evenodd" d="M6 20h36l-2.8 15.7A5.2 5.2 0 0 1 34.1 40H13.9a5.2 5.2 0 0 1-5.1-4.3L6 20Zm14.6 6.2a1.8 1.8 0 0 0-2.5 0l-4.5 4.5a1.8 1.8 0 0 0 0 2.6l4.5 4.5a1.8 1.8 0 0 0 2.5-2.6L17.4 32l3.2-3.2a1.8 1.8 0 0 0 0-2.6Zm6.8 0a1.8 1.8 0 0 1 2.5 0l4.5 4.5a1.8 1.8 0 0 1 0 2.6l-4.5 4.5a1.8 1.8 0 0 1-2.5-2.6l3.2-3.2-3.2-3.2a1.8 1.8 0 0 1 0-2.6Z" clip-rule="evenodd"/>
</svg>
